<?xml version="1.0" encoding="UTF-8" standalone="no"?> <svg xmlns="http://www.w3.org/2000/svg" xmlns:svg="http://www.w3.org/2000/svg" width="111.0201mm" height="117.76171mm" viewBox="54.48 94.59 174.38592 184.97535" version="1.1" id="inkwell-logo" xml:space="preserve"> <style id="style1"> * { stroke-dasharray: none; stroke-opacity: 1; fill-opacity: 1; fill-rule: evenodd; stroke-width: 1.09953; } .dark-blue-fill { fill: #001220; } .brand-blue-fill { fill: #2e4057; } .light-blue-fill { fill: #b4cfe0; } .white-blue-fill { fill: #f6fafb; } .white-fill { fill: #ffffff; } </style> <defs id="defs1"></defs> <g id="outer-background-group"> <circle id="outer-outline" cx="141.67296" cy="192.37239" r="87.192955" class="brand-blue-fill"></circle> <g id="inner-outline-group" transform="matrix(0.97101378,0,0,0.97101378,-1.3882267,-3.6156579)"> <circle id="inner-outline-puddle" cx="147.33177" cy="201.83859" r="76.037346" class="light-blue-fill"></circle> <path d="m 147.33136,125.80124 c -41.99391,2.2e-4 -76.036722,34.04303 -76.036933,76.03695 -9.7e-5,16.93447 5.541838,32.57123 14.902685,45.20877 18.572888,-4.05593 39.277218,-6.33781 61.134248,-6.33785 21.85661,-1e-5 42.56236,2.28132 61.13508,6.33703 9.36054,-12.63741 14.90278,-28.27376 14.90268,-45.20795 -2e-4,-41.99424 -34.04352,-76.03719 -76.03776,-76.03695 z" id="inner-outline" class="white-blue-fill"></path> </g> </g> <g id="inner-background-group"> <path d="m 203.89007,94.59 c -0.54823,0 -7.70939,2.965683 -15.48234,6.41093 -12.43918,5.5135 -29.07335,14.60727 -35.99196,19.67649 -0.71324,0.5226 -1.691,1.23127 -2.17257,1.57511 -6.16572,4.40211 -10.40195,7.98625 -15.51363,13.0962 20.48569,0.012 39.08117,8.05682 52.8478,21.13653 l 7.06638,-19.52551 -0.0266,-0.0102 c 1.53463,-3.54386 3.13587,-8.19018 4.77136,-13.91551 0.41742,-1.46124 1.23682,-4.13361 1.82092,-5.93867 1.80979,-5.59323 4.91962,-16.7444 5.30162,-19.010914 C 206.8127,96.294167 205.53442,94.59 203.89007,94.59 Z" id="quill-outline" class="white-fill"></path> <circle id="inner-background" cx="141.67296" cy="192.37239" r="61.196899" class="white-fill"></circle> </g> <path d="m 124.58044,216.97336 c -0.0127,-0.28521 -0.76389,-3.84491 -1.23785,-5.86526 l -0.46926,-2.00035 0.7494,-0.82949 c 0.80137,-0.88703 1.68379,-2.55251 3.4475,-6.50682 0.60678,-1.36044 1.27931,-2.7172 1.49448,-3.015 0.60158,-0.83255 0.39949,-1.2927 -0.62815,-1.43028 -1.08333,-0.14504 -2.19537,-1.01472 -3.02624,-2.36673 -1.84495,-3.00211 0.0416,-6.79244 3.58551,-7.20375 0.68496,-0.0795 1.29286,-0.22136 1.35087,-0.31523 0.058,-0.0939 -0.0881,-1.4993 -0.32468,-3.12317 -0.8045,-5.52155 -0.74723,-12.80095 0.13918,-17.6906 1.16006,-6.39913 4.22731,-14.18312 8.00056,-20.30357 1.57634,-2.55693 2.09596,-3.19498 2.60192,-3.19498 0.60067,0 0.8202,0.51063 1.03163,2.39969 0.22952,2.05096 0.72931,4.05736 1.67675,6.73151 0.85744,2.42013 1.67922,3.0471 3.12839,2.38681 0.96263,-0.4386 0.97344,-1.40737 0.0454,-4.07338 -1.56777,-4.50413 -1.95711,-8.31614 -1.16547,-11.41139 0.77327,-3.02346 1.91818,-4.68087 6.24716,-9.04352 3.51929,-3.54668 6.3494,-5.94657 10.54531,-8.94231 0.31758,-0.22675 0.96226,-0.69423 1.43262,-1.03887 4.56263,-3.34301 15.53207,-9.3399 23.73537,-12.97589 5.12604,-2.27204 9.84907,-4.22752 10.21061,-4.22752 1.0844,0 1.92701,1.12366 1.72802,2.30436 -0.25192,1.4947 -2.3026,8.84824 -3.49613,12.53682 -0.38518,1.19038 -0.92555,2.95277 -1.20082,3.91642 -2.05495,7.19372 -4.03264,11.87923 -5.76748,13.66426 -1.613,1.65967 -4.93581,3.5459 -8.99786,5.10777 -3.6977,1.42177 -3.91641,1.58712 -3.91641,2.96087 0,1.13529 0.60158,1.61529 1.81459,1.44784 1.16728,-0.16114 2.89165,-0.63771 3.2105,-0.88731 0.12714,-0.0995 0.50942,-0.24735 0.84953,-0.32853 0.34011,-0.0811 1.46241,-0.55776 2.49399,-1.05906 2.09325,-1.01724 2.96839,-1.16199 2.96839,-0.491 0,0.48411 -0.66346,1.87268 -1.32567,2.77451 -0.24975,0.34011 -1.04444,1.82423 -1.76601,3.29805 -2.09144,4.27183 -3.70546,6.79376 -6.19241,9.67567 -3.48294,4.03608 -6.77994,6.95388 -8.9582,7.92792 -0.22674,0.10138 -1.04677,0.47976 -1.8223,0.84084 -1.90606,0.88745 -4.65518,1.75228 -6.5279,2.0536 -2.15734,0.34711 -2.23089,0.37771 -2.5936,1.07911 -0.40973,0.79232 -0.23788,1.50193 0.47716,1.97033 0.49085,0.32154 1.01798,0.35633 4.58307,0.30247 2.21563,-0.0335 4.39945,-0.0799 4.85293,-0.10307 0.71122,-0.0364 0.83349,0.0208 0.88981,0.41721 0.11366,0.79975 -7.59376,8.95028 -9.99826,10.57305 -0.4937,0.3332 -1.01158,0.70444 -1.15085,0.825 -2.16901,1.87755 -10.40781,5.76342 -13.96069,6.58463 -1.95689,0.45231 -2.75076,0.72021 -2.82608,0.95369 -0.0401,0.12424 0.28986,0.46596 0.73322,0.75938 1.52649,1.01017 2.25996,3.47082 1.5279,5.12577 -1.29883,2.93622 -4.45739,4.25103 -7.28749,3.03354 -0.56298,-0.24219 -1.07244,-0.3915 -1.13214,-0.33179 -0.18017,0.18016 -1.94343,5.32763 -2.24155,6.5437 -0.15286,0.62354 -0.44278,2.04353 -0.64427,3.15552 l -0.36635,2.0218 -1.66295,1.46788 c -0.91461,0.80733 -2.23658,2.05412 -2.9377,2.77066 -1.12529,1.15001 -1.90638,1.61539 -1.92705,1.14819 z m 12.76205,-26.89966 c 1.05152,-3.32235 4.48328,-12.51512 6.55996,-17.57239 2.88413,-7.02359 8.21724,-16.8809 12.18138,-22.51511 0.5327,-0.75714 1.24683,-1.8187 1.58694,-2.35903 2.30358,-3.65965 5.78465,-8.38397 8.47911,-11.50739 1.07058,-1.24102 2.74985,-3.41494 2.75224,-3.56295 0.006,-0.3843 -1.03441,0.46881 -3.5722,2.92856 -1.49164,1.44578 -3.63028,3.59452 -4.75253,4.77499 -5.59633,5.88664 -5.56381,5.84937 -8.16487,9.36077 -0.67183,0.90695 -1.36465,1.83453 -1.5396,2.06126 -0.17495,0.22675 -0.57215,0.80145 -0.88267,1.27712 -1.11336,1.70548 -2.80075,4.09839 -3.51373,4.98286 -0.39932,0.49537 -1.02015,1.47501 -1.37964,2.17698 -0.35949,0.70197 -0.90075,1.64 -1.20279,2.08451 -0.30206,0.44451 -0.54919,0.88044 -0.54919,0.96873 0,0.0883 -0.4497,0.87839 -0.99933,1.75577 -0.54964,0.87737 -1.49357,2.5228 -2.09761,3.65651 -0.60404,1.1337 -1.16507,2.10765 -1.24672,2.16434 -0.0817,0.0567 -0.2606,0.52047 -0.39763,1.03064 -0.13703,0.51015 -0.45918,1.2986 -0.7159,1.75209 -0.25671,0.45347 -0.67915,1.38105 -0.93874,2.06127 -0.25959,0.68022 -0.7265,1.7933 -1.03758,2.47353 -0.90713,1.98355 -1.84486,4.41572 -2.3445,6.08077 -0.25514,0.85027 -0.62966,1.91698 -0.83226,2.37046 -0.51358,1.14953 -1.34039,4.29885 -1.17368,4.4705 0.12122,0.1248 4.47911,1.76183 4.79484,1.80116 0.0673,0.008 0.51127,-1.21379 0.9867,-2.71595 z" id="quill" class="dark-blue-fill"></path> <g id="inkwell-group"> <path id="inkwell" class="dark-blue-fill" d="m 119.14103,186.20962 c -3.14889,0 -5.68443,1.90999 -5.68443,4.28341 v 5.1008 c 0,2.32032 2.42516,4.19324 5.47582,4.27611 0.13956,0.13649 0.57099,0.58387 0.72323,1.07227 0.18094,0.58047 0.18094,1.68664 0,2.26711 -0.16954,0.54389 -0.69302,1.04625 -0.76057,1.10961 l -11.00683,0.0617 c -2.9006,0.0162 -5.53222,1.76781 -6.76075,4.49933 l -6.971658,15.50081 a 4.0253311,4.0253311 102.14066 0 0 -0.354214,1.64656 l -0.03636,32.06352 c -0.0026,2.29528 1.86069,4.15597 4.155969,4.15597 h 87.504246 c 2.29528,0 4.15596,-1.86069 4.15596,-4.15597 v -31.76664 c 0,-0.59384 -0.19296,-1.51629 -0.43224,-2.0598 -2.26099,-5.13571 -4.6146,-10.26378 -6.92915,-15.38445 -1.22856,-2.73152 -3.86095,-4.4831 -6.76156,-4.49933 l -11.00683,-0.0617 c -0.0686,-0.0643 -0.59192,-0.56632 -0.76138,-1.10961 -0.18107,-0.58049 -0.18107,-1.68662 0,-2.26711 0.15235,-0.48842 0.58516,-0.93578 0.72486,-1.07227 3.05065,-0.0829 5.475,-1.95579 5.475,-4.27611 v -5.1008 c 0,-2.37342 -2.53472,-4.28341 -5.68361,-4.28341 z"></path> <g id="inkwell-bottom-group"> <rect id="base-background" width="79.521286" height="21.990637" x="101.91271" y="231.66153" class="white-fill"></rect> <rect id="base-bottom" width="79.521416" height="3.6598701" x="101.91264" y="246.30026" class="light-blue-fill"></rect> <rect id="base-top" width="79.521416" height="3.6598701" x="101.91264" y="231.66153" class="light-blue-fill"></rect> <rect id="base-middle" width="79.521416" height="3.6598701" x="101.91264" y="238.98051" class="light-blue-fill"></rect> </g> <g id="inkwell-middle-group"> <path id="middle-background" d="m 126.94987,212.5305 10e-6,-12.65247 18.26972,-3.1e-4 v 10.40697 a 12.531674,12.531674 135 0 1 -12.53167,12.53167 h -28.8797 l 4.31627,-10.28586 z" class="white-fill"></path> <path id="middle-vertical-shadow" d="m 138.38841,202.17318 6.83119,0.0827 v 8.31579 a 12.30563,12.30563 134.89937 0 1 -12.26241,12.30555 l -9.91484,0.0348 c 0,0 0.0214,-1.58078 0.84057,-2.55989 0.67864,-0.81114 2.6497,-0.71193 3.74799,-0.71993 6.82609,-0.0497 10.97852,-2.25598 10.7575,-15.54989 z" transform="matrix(0.99999999,0,0,0.98729478,-7.36803e-7,2.7364469)" class="light-blue-fill"></path> <rect style="fill:#216281" id="middle-corner-shadow" width="6.9174237" height="2.5414894" x="138.34306" y="199.86232"></rect> <rect id="middle-horizontal-shadow" width="11.459313" height="2.5414894" x="126.91786" y="199.86232" class="light-blue-fill"></rect> <path id="inkwell-window" d="m 163.2525,212.19286 10.11601,3e-5 5.51475,10.28461 h -3.03164 c -0.43712,0 -0.98616,-0.29611 -1.23227,-0.65737 -0.87784,-1.28857 -2.88698,-4.13365 -4.36346,-5.43195 -2.0436,-1.79696 -7.00339,-4.19532 -7.00339,-4.19532 z" transform="translate(0.10149674,0.33832914)" class="white-fill"></path> </g> <g id="inkwell-top-group" transform="translate(0,0.8311937)"> <path id="top-background" width="41.208366" height="4.6012626" x="121.1983" y="192.90816" ry="2.3006313" transform="translate(-0.12913342,-2.1318836)" d="m 123.49893,192.90816 h 36.60711 c 1.27455,0 2.30063,1.02608 2.30063,2.30063 0,1.27455 -1.02608,2.30063 -2.30063,2.30063 h -36.60711 c -1.27455,0 -2.30063,-1.02608 -2.30063,-2.30063 0,-1.27455 1.02608,-2.30063 2.30063,-2.30063 z" class="white-fill"></path> <path id="top-shadow" d="m 156.5225,190.77652 c 0.43761,1.64586 -0.82508,3.02334 -1.55443,3.65757 -0.57819,0.50279 -2.09584,0.94321 -2.09584,0.94321 h 7.10411 c 1.27455,0 2.3012,-1.02584 2.3012,-2.30039 0,-1.27455 -1.02665,-2.30039 -2.3012,-2.30039 z" class="light-blue-fill"></path> </g> </g> </svg> 